<svg width="121" height="109" viewBox="0 0 121 109" fill="none" xmlns="http://www.w3.org/2000/svg">
<g clip-path="url(#clip0)">
<path d="M108.915 75.7752L105.567 65.6721C105.567 65.6721 109.25 69.3545 109.25 72.376L108.589 65.3888C108.589 65.3888 110.477 67.9382 110.288 71.8095C110.1 75.6808 108.915 75.7752 108.915 75.7752Z" fill="#E6E6E6"/>
<path d="M37.0201 66.5758L33.7527 56.7155C33.7527 56.7155 37.3466 60.3095 37.3466 63.2583L36.7016 56.4391C36.7016 56.4391 38.5446 58.9272 38.3603 62.7054C38.176 66.4836 37.0201 66.5758 37.0201 66.5758Z" fill="#E6E6E6"/>
<path d="M88.0182 71.126C88.0238 77.6122 75.1591 75.6171 59.4097 75.6307C43.6603 75.6443 30.9902 77.6615 30.9846 71.1752C30.979 64.6889 43.839 63.2671 59.5884 63.2535C75.3378 63.2399 88.0126 64.6397 88.0182 71.126Z" fill="white"/>
<path d="M119.218 75.6268H2V75.9236H119.218V75.6268Z" fill="#3F3D56"/>
<path d="M76.9803 62.3662H74.9213L73.9414 54.4243H76.9803V62.3662Z" fill="#F5C4CB"/>
<path d="M73.2217 61.778H77.4214V64.2782H70.9502V64.0495C70.9502 63.447 71.1895 62.8693 71.6155 62.4433C72.0415 62.0173 72.6193 61.778 73.2217 61.778Z" fill="#2F2E41"/>
<path d="M92.1148 74.088H90.0558L89.0759 66.1461H92.1148V74.088Z" fill="#F5C4CB"/>
<path d="M88.3562 73.4998H92.556V76H86.0847V75.7713C86.0847 75.1688 86.324 74.5911 86.75 74.1651C87.176 73.7391 87.7538 73.4998 88.3562 73.4998Z" fill="#2F2E41"/>
<path d="M101.612 50.4941C101.754 50.3214 101.857 50.1197 101.913 49.903C101.969 49.6863 101.977 49.4601 101.936 49.2401C101.895 49.0201 101.806 48.8117 101.676 48.6297C101.546 48.4477 101.377 48.2965 101.182 48.1867L96.4 28.7058L93.3423 30.0214L99.0304 48.8577C98.8676 49.1975 98.8351 49.5851 98.939 49.9473C99.0429 50.3094 99.2761 50.6208 99.5943 50.8225C99.9125 51.0242 100.294 51.1022 100.665 51.0417C101.037 50.9811 101.374 50.7863 101.612 50.4941Z" fill="#F5C4CB"/>
<path d="M97.8824 11.1229C97.7117 10.9445 97.504 10.8056 97.2739 10.7162C97.0437 10.6267 96.7968 10.5888 96.5504 10.6051C96.3041 10.6214 96.0643 10.6915 95.8479 10.8105C95.6316 10.9296 95.444 11.0945 95.2983 11.2939L87.8965 12.1437L89.0225 14.9986L95.754 13.7388C96.1051 13.9613 96.5257 14.0473 96.9359 13.9805C97.3462 13.9136 97.7177 13.6986 97.9801 13.3762C98.2424 13.0537 98.3774 12.6463 98.3594 12.231C98.3414 11.8157 98.1716 11.4214 97.8824 11.1229Z" fill="#F5C4CB"/>
<path d="M85.6848 48.4738L88.9147 72.7148L92.9347 71.8872C92.9347 71.8872 92.3436 54.233 94.3536 52.1048C96.3636 49.9765 91.7683 46.2482 91.7683 46.2482L85.6848 48.4738Z" fill="#939393"/>
<path d="M87.0202 41.7968L85.5364 44.0225C85.5364 44.0225 74.1113 39.2745 74.1113 46.8417C74.1113 54.4088 73.4575 59.5442 73.2211 59.8989C72.9846 60.2536 75.9568 61.174 77.3756 60.9375C77.3756 60.9375 79.126 48.7381 79.0078 48.0287C79.0078 48.0287 90.2153 53.5236 92.3435 53.0506C94.4718 52.5777 94.9746 50.9035 95.3293 49.9576C95.684 49.0117 95.1809 41.5001 95.1809 41.5001L88.087 39.3352L87.0202 41.7968Z" fill="#939393"/>
<path d="M87.22 28.434L86.7971 27.9265C86.7971 27.9265 82.0604 17.2688 83.9212 14.3929C85.7821 11.5171 93.9022 11.0941 94.156 11.2633C94.4097 11.4325 93.5499 13.6289 94.1419 14.6439C94.1419 14.6439 87.8516 16.0076 87.4287 16.1768C87.0058 16.346 90.688 22.5976 90.688 22.5976L90.2651 26.4039L87.22 28.434Z" fill="#FF7A70"/>
<path d="M95.5094 23.1897C95.5094 23.1897 91.111 23.6973 90.9418 23.6973C90.7727 23.6973 90.6881 22.5977 90.6881 22.5977L86.7972 27.9265C86.7972 27.9265 84.8803 43.3861 85.3878 43.1323C85.8953 42.8786 95.2556 44.3359 95.3402 43.6592C95.4248 42.9825 95.2556 39.5992 95.5094 39.43C95.7632 39.2608 99.9078 28.7723 99.9078 28.7723C99.9078 28.7723 99.4849 26.5731 98.0469 25.8119C96.609 25.0506 95.5094 23.1897 95.5094 23.1897Z" fill="#FF7A70"/>
<path d="M98.5544 27.3344L99.9078 28.7723C99.9078 28.7723 101.919 45.2955 100.819 45.8031C99.7194 46.3106 97.5547 46.2482 97.5547 46.2482L95.4248 38.4149L98.5544 27.3344Z" fill="#FF7A70"/>
<path d="M91.2831 22.1433C93.4333 22.1433 95.1764 20.4002 95.1764 18.2501C95.1764 16.0999 93.4333 14.3568 91.2831 14.3568C89.133 14.3568 87.3899 16.0999 87.3899 18.2501C87.3899 20.4002 89.133 22.1433 91.2831 22.1433Z" fill="#F5C4CB"/>
<path d="M90.3696 18.8575C90.317 18.0497 89.2978 18.022 88.4883 18.0144C87.6788 18.0067 86.711 18.0356 86.253 17.3681C85.9503 16.927 86.0081 16.3146 86.2582 15.8416C86.5082 15.3687 86.9196 15.0049 87.3243 14.655C88.3691 13.7516 89.4458 12.8553 90.7002 12.277C91.9545 11.6988 93.4244 11.4651 94.7253 11.9293C96.3234 12.4995 98.4836 15.4348 98.6702 17.1213C98.8567 18.8077 98.1827 20.5269 97.0466 21.7871C95.9105 23.0473 93.3102 22.5389 91.6738 22.9872C92.6687 21.5792 92.0129 19.0207 90.4192 18.3632L90.3696 18.8575Z" fill="#2F2E41"/>
<path d="M55.6709 69.217C60.8326 69.217 65.0171 65.0326 65.0171 59.8708C65.0171 54.7091 60.8326 50.5247 55.6709 50.5247C50.5091 50.5247 46.3247 54.7091 46.3247 59.8708C46.3247 65.0326 50.5091 69.217 55.6709 69.217Z" fill="#DB3022"/>
<path d="M49.4298 49.8606C48.1345 49.8607 46.8669 49.4853 45.7805 48.7799C44.6941 48.0745 43.8355 47.0694 43.3085 45.8861L28.4778 12.4876C27.9866 11.3813 27.7267 10.1862 27.7143 8.97576C27.7019 7.76533 27.9372 6.56514 28.4057 5.44898C28.8742 4.33282 29.566 3.32426 30.4386 2.4853C31.3112 1.64634 32.3462 0.994698 33.4799 0.570437C34.6136 0.146175 35.8221 -0.0417456 37.0312 0.0182264C38.2402 0.0781983 39.4241 0.384795 40.5103 0.919171C41.5965 1.45355 42.5619 2.20441 43.3472 3.12561C44.1325 4.04682 44.7211 5.11889 45.0768 6.27594L55.816 41.2057C56.1234 42.2055 56.1921 43.2635 56.0165 44.2947C55.8409 45.3259 55.4259 46.3015 54.8048 47.1432C54.1838 47.9848 53.374 48.6691 52.4405 49.1411C51.507 49.613 50.4758 49.8595 49.4298 49.8606Z" fill="#DB3022"/>
</g>
<path d="M9.6748 104H8.34863L2.88672 95.6123H2.83203C2.90495 96.5967 2.94141 97.499 2.94141 98.3193V104H1.86816V94.0059H3.18066L8.62891 102.359H8.68359C8.67448 102.236 8.65397 101.842 8.62207 101.177C8.59017 100.507 8.57878 100.028 8.58789 99.7412V94.0059H9.6748V104ZM18.7188 100.247C18.7188 101.468 18.4111 102.423 17.7959 103.111C17.1807 103.795 16.3307 104.137 15.2461 104.137C14.5762 104.137 13.9814 103.979 13.4619 103.665C12.9424 103.351 12.5413 102.899 12.2588 102.312C11.9762 101.724 11.835 101.035 11.835 100.247C11.835 99.0257 12.1403 98.0755 12.751 97.3965C13.3617 96.7129 14.2093 96.3711 15.2939 96.3711C16.3421 96.3711 17.1738 96.7197 17.7891 97.417C18.4089 98.1143 18.7188 99.0576 18.7188 100.247ZM13.0107 100.247C13.0107 101.204 13.2021 101.933 13.585 102.435C13.9678 102.936 14.5306 103.187 15.2734 103.187C16.0163 103.187 16.5791 102.938 16.9619 102.441C17.3493 101.94 17.543 101.209 17.543 100.247C17.543 99.2946 17.3493 98.5723 16.9619 98.0801C16.5791 97.5833 16.0117 97.335 15.2598 97.335C14.5169 97.335 13.9564 97.5788 13.5781 98.0664C13.1999 98.554 13.0107 99.2809 13.0107 100.247ZM29.4785 104V99.1533C29.4785 98.5426 29.3395 98.0869 29.0615 97.7861C28.7835 97.4854 28.3483 97.335 27.7559 97.335C26.972 97.335 26.3978 97.5469 26.0332 97.9707C25.6686 98.3945 25.4863 99.0941 25.4863 100.069V104H24.3516V96.5078H25.2744L25.459 97.5332H25.5137C25.7461 97.1641 26.0719 96.8792 26.4912 96.6787C26.9105 96.4736 27.3776 96.3711 27.8926 96.3711C28.7949 96.3711 29.474 96.5898 29.9297 97.0273C30.3854 97.4603 30.6133 98.1553 30.6133 99.1123V104H29.4785ZM39.418 100.247C39.418 101.468 39.1104 102.423 38.4951 103.111C37.8799 103.795 37.0299 104.137 35.9453 104.137C35.2754 104.137 34.6807 103.979 34.1611 103.665C33.6416 103.351 33.2406 102.899 32.958 102.312C32.6755 101.724 32.5342 101.035 32.5342 100.247C32.5342 99.0257 32.8395 98.0755 33.4502 97.3965C34.0609 96.7129 34.9085 96.3711 35.9932 96.3711C37.0413 96.3711 37.873 96.7197 38.4883 97.417C39.1081 98.1143 39.418 99.0576 39.418 100.247ZM33.71 100.247C33.71 101.204 33.9014 101.933 34.2842 102.435C34.667 102.936 35.2298 103.187 35.9727 103.187C36.7155 103.187 37.2783 102.938 37.6611 102.441C38.0485 101.94 38.2422 101.209 38.2422 100.247C38.2422 99.2946 38.0485 98.5723 37.6611 98.0801C37.2783 97.5833 36.7109 97.335 35.959 97.335C35.2161 97.335 34.6556 97.5788 34.2773 98.0664C33.8991 98.554 33.71 99.2809 33.71 100.247ZM43.834 103.2C44.0345 103.2 44.2282 103.187 44.415 103.159C44.6019 103.127 44.75 103.095 44.8594 103.063V103.932C44.7363 103.991 44.554 104.039 44.3125 104.075C44.0755 104.116 43.8613 104.137 43.6699 104.137C42.2207 104.137 41.4961 103.373 41.4961 101.847V97.3896H40.4229V96.8428L41.4961 96.3711L41.9746 94.7715H42.6309V96.5078H44.8047V97.3896H42.6309V101.799C42.6309 102.25 42.738 102.596 42.9521 102.838C43.1663 103.079 43.4603 103.2 43.834 103.2ZM47.498 104H46.3633V96.5078H47.498V104ZM46.2676 94.4775C46.2676 94.2178 46.3314 94.0286 46.459 93.9102C46.5866 93.7871 46.7461 93.7256 46.9375 93.7256C47.1198 93.7256 47.277 93.7871 47.4092 93.9102C47.5413 94.0332 47.6074 94.2223 47.6074 94.4775C47.6074 94.7327 47.5413 94.9242 47.4092 95.0518C47.277 95.1748 47.1198 95.2363 46.9375 95.2363C46.7461 95.2363 46.5866 95.1748 46.459 95.0518C46.3314 94.9242 46.2676 94.7327 46.2676 94.4775ZM53.2812 97.3896H51.374V104H50.2393V97.3896H48.8994V96.877L50.2393 96.4668V96.0498C50.2393 94.2087 51.0436 93.2881 52.6523 93.2881C53.0488 93.2881 53.5137 93.3678 54.0469 93.5273L53.7529 94.4365C53.3154 94.2952 52.9417 94.2246 52.6318 94.2246C52.2035 94.2246 51.8867 94.3682 51.6816 94.6553C51.4766 94.9378 51.374 95.3936 51.374 96.0225V96.5078H53.2812V97.3896ZM55.7832 104H54.6484V96.5078H55.7832V104ZM54.5527 94.4775C54.5527 94.2178 54.6165 94.0286 54.7441 93.9102C54.8717 93.7871 55.0312 93.7256 55.2227 93.7256C55.4049 93.7256 55.5622 93.7871 55.6943 93.9102C55.8265 94.0332 55.8926 94.2223 55.8926 94.4775C55.8926 94.7327 55.8265 94.9242 55.6943 95.0518C55.5622 95.1748 55.4049 95.2363 55.2227 95.2363C55.0312 95.2363 54.8717 95.1748 54.7441 95.0518C54.6165 94.9242 54.5527 94.7327 54.5527 94.4775ZM61.1836 104.137C60.099 104.137 59.2581 103.804 58.6611 103.139C58.0687 102.469 57.7725 101.523 57.7725 100.302C57.7725 99.0485 58.0732 98.0801 58.6748 97.3965C59.2809 96.7129 60.1423 96.3711 61.2588 96.3711C61.6188 96.3711 61.9788 96.4098 62.3389 96.4873C62.6989 96.5648 62.9814 96.6559 63.1865 96.7607L62.8379 97.7246C62.5872 97.6243 62.3138 97.5423 62.0176 97.4785C61.7214 97.4102 61.4593 97.376 61.2314 97.376C59.7093 97.376 58.9482 98.3467 58.9482 100.288C58.9482 101.209 59.1328 101.915 59.502 102.407C59.8757 102.899 60.4271 103.146 61.1562 103.146C61.7806 103.146 62.4209 103.011 63.0771 102.742V103.747C62.5758 104.007 61.9447 104.137 61.1836 104.137ZM69.4688 104L69.2432 102.934H69.1885C68.8148 103.403 68.4411 103.722 68.0674 103.891C67.6982 104.055 67.2357 104.137 66.6797 104.137C65.9368 104.137 65.3535 103.945 64.9297 103.562C64.5104 103.18 64.3008 102.635 64.3008 101.929C64.3008 100.416 65.5107 99.6227 67.9307 99.5498L69.2021 99.5088V99.0439C69.2021 98.4561 69.0745 98.0231 68.8193 97.7451C68.5687 97.4626 68.1654 97.3213 67.6094 97.3213C66.985 97.3213 66.2786 97.5127 65.4902 97.8955L65.1416 97.0273C65.5107 96.8268 65.9141 96.6696 66.3516 96.5557C66.7936 96.4417 67.2357 96.3848 67.6777 96.3848C68.571 96.3848 69.2318 96.583 69.6602 96.9795C70.0931 97.376 70.3096 98.0117 70.3096 98.8867V104H69.4688ZM66.9053 103.2C67.6117 103.2 68.1654 103.007 68.5664 102.619C68.972 102.232 69.1748 101.689 69.1748 100.992V100.315L68.04 100.363C67.1377 100.395 66.486 100.536 66.085 100.787C65.6885 101.033 65.4902 101.418 65.4902 101.942C65.4902 102.353 65.6133 102.665 65.8594 102.879C66.11 103.093 66.4587 103.2 66.9053 103.2ZM75.0742 103.2C75.2747 103.2 75.4684 103.187 75.6553 103.159C75.8421 103.127 75.9902 103.095 76.0996 103.063V103.932C75.9766 103.991 75.7943 104.039 75.5527 104.075C75.3158 104.116 75.1016 104.137 74.9102 104.137C73.4609 104.137 72.7363 103.373 72.7363 101.847V97.3896H71.6631V96.8428L72.7363 96.3711L73.2148 94.7715H73.8711V96.5078H76.0449V97.3896H73.8711V101.799C73.8711 102.25 73.9782 102.596 74.1924 102.838C74.4066 103.079 74.7005 103.2 75.0742 103.2ZM78.7383 104H77.6035V96.5078H78.7383V104ZM77.5078 94.4775C77.5078 94.2178 77.5716 94.0286 77.6992 93.9102C77.8268 93.7871 77.9863 93.7256 78.1777 93.7256C78.36 93.7256 78.5173 93.7871 78.6494 93.9102C78.7816 94.0332 78.8477 94.2223 78.8477 94.4775C78.8477 94.7327 78.7816 94.9242 78.6494 95.0518C78.5173 95.1748 78.36 95.2363 78.1777 95.2363C77.9863 95.2363 77.8268 95.1748 77.6992 95.0518C77.5716 94.9242 77.5078 94.7327 77.5078 94.4775ZM87.6113 100.247C87.6113 101.468 87.3037 102.423 86.6885 103.111C86.0732 103.795 85.2233 104.137 84.1387 104.137C83.4688 104.137 82.874 103.979 82.3545 103.665C81.835 103.351 81.4339 102.899 81.1514 102.312C80.8688 101.724 80.7275 101.035 80.7275 100.247C80.7275 99.0257 81.0329 98.0755 81.6436 97.3965C82.2542 96.7129 83.1019 96.3711 84.1865 96.3711C85.2347 96.3711 86.0664 96.7197 86.6816 97.417C87.3014 98.1143 87.6113 99.0576 87.6113 100.247ZM81.9033 100.247C81.9033 101.204 82.0947 101.933 82.4775 102.435C82.8604 102.936 83.4232 103.187 84.166 103.187C84.9089 103.187 85.4717 102.938 85.8545 102.441C86.2419 101.94 86.4355 101.209 86.4355 100.247C86.4355 99.2946 86.2419 98.5723 85.8545 98.0801C85.4717 97.5833 84.9043 97.335 84.1523 97.335C83.4095 97.335 82.849 97.5788 82.4707 98.0664C82.0924 98.554 81.9033 99.2809 81.9033 100.247ZM94.7344 104V99.1533C94.7344 98.5426 94.5954 98.0869 94.3174 97.7861C94.0394 97.4854 93.6042 97.335 93.0117 97.335C92.2279 97.335 91.6536 97.5469 91.2891 97.9707C90.9245 98.3945 90.7422 99.0941 90.7422 100.069V104H89.6074V96.5078H90.5303L90.7148 97.5332H90.7695C91.002 97.1641 91.3278 96.8792 91.7471 96.6787C92.1663 96.4736 92.6335 96.3711 93.1484 96.3711C94.0508 96.3711 94.7298 96.5898 95.1855 97.0273C95.6413 97.4603 95.8691 98.1553 95.8691 99.1123V104H94.7344ZM100.654 96.5078H101.871L103.512 100.78C103.872 101.756 104.095 102.46 104.182 102.893H104.236C104.296 102.66 104.419 102.264 104.605 101.703C104.797 101.138 105.417 99.4062 106.465 96.5078H107.682L104.462 105.039C104.143 105.882 103.769 106.479 103.341 106.83C102.917 107.186 102.395 107.363 101.775 107.363C101.429 107.363 101.087 107.325 100.75 107.247V106.338C101.001 106.393 101.281 106.42 101.591 106.42C102.37 106.42 102.926 105.982 103.259 105.107L103.676 104.041L100.654 96.5078ZM112.063 104.137C110.956 104.137 110.081 103.799 109.438 103.125C108.8 102.451 108.481 101.514 108.481 100.315C108.481 99.1077 108.778 98.1484 109.37 97.4375C109.967 96.7266 110.767 96.3711 111.77 96.3711C112.708 96.3711 113.451 96.681 113.998 97.3008C114.545 97.916 114.818 98.7295 114.818 99.7412V100.459H109.657C109.68 101.339 109.901 102.006 110.32 102.462C110.744 102.918 111.339 103.146 112.104 103.146C112.911 103.146 113.709 102.977 114.497 102.64V103.651C114.096 103.825 113.715 103.948 113.355 104.021C113 104.098 112.569 104.137 112.063 104.137ZM111.756 97.3213C111.154 97.3213 110.674 97.5173 110.313 97.9092C109.958 98.3011 109.748 98.8434 109.685 99.5361H113.602C113.602 98.8206 113.442 98.2738 113.123 97.8955C112.804 97.5127 112.348 97.3213 111.756 97.3213ZM119.18 103.2C119.38 103.2 119.574 103.187 119.761 103.159C119.948 103.127 120.096 103.095 120.205 103.063V103.932C120.082 103.991 119.9 104.039 119.658 104.075C119.421 104.116 119.207 104.137 119.016 104.137C117.566 104.137 116.842 103.373 116.842 101.847V97.3896H115.769V96.8428L116.842 96.3711L117.32 94.7715H117.977V96.5078H120.15V97.3896H117.977V101.799C117.977 102.25 118.084 102.596 118.298 102.838C118.512 103.079 118.806 103.2 119.18 103.2Z" fill="#1F2A36"/>
<defs>
<clipPath id="clip0">
<rect width="117.218" height="76" fill="white" transform="translate(2)"/>
</clipPath>
</defs>
</svg>
